<svg width="48" height="48" viewBox="0 0 48 48" fill="none" xmlns="http://www.w3.org/2000/svg">
<path d="M7.26901 11.516C13.238 8.41601 20.833 5.55601 27.919 3.81301C29.992 3.30301 32.134 4.07001 33.212 5.91201C33.982 7.22801 34.922 9.03201 35.916 11.39" stroke="black" stroke-width="3" stroke-linecap="round" stroke-linejoin="round"/>
<path d="M29.064 31.123C29.159 33.253 30.801 34.84 32.93 34.925C34.015 34.969 35.364 35 37 35C38.636 35 39.985 34.969 41.07 34.925C43.2 34.84 44.841 33.253 44.936 31.123C44.974 30.256 45 29.219 45 28C45 26.78 44.974 25.744 44.936 24.877C44.841 22.747 43.199 21.16 41.07 21.075C39.714 21.023 38.3571 20.9979 37 21C35.364 21 34.015 21.031 32.93 21.075C30.8 21.16 29.159 22.747 29.064 24.877C29.0197 25.9174 28.9984 26.9586 29 28C29 29.22 29.026 30.256 29.064 31.123Z" stroke="black" stroke-width="3" stroke-linecap="round" stroke-linejoin="round"/>
<path d="M40.874 21.067C40.8117 19.3945 40.714 17.7234 40.581 16.055C40.373 13.504 38.392 11.585 35.839 11.408C32.899 11.204 28.363 11 22 11C15.637 11 11.1 11.204 8.16 11.408C5.608 11.584 3.627 13.504 3.419 16.055C3.204 18.689 3 22.613 3 28C3 33.387 3.204 37.31 3.419 39.945C3.627 42.496 5.608 44.415 8.161 44.592C11.1 44.796 15.637 45 22 45C28.363 45 32.9 44.796 35.839 44.592C38.392 44.416 40.373 42.496 40.581 39.945C40.69 38.612 40.796 36.949 40.874 34.933" stroke="black" stroke-width="3" stroke-linecap="round" stroke-linejoin="round"/>
<path d="M36 27V29" stroke="black" stroke-width="3" stroke-linecap="round" stroke-linejoin="round"/>
</svg>
